<svg xmlns="http://www.w3.org/2000/svg" xmlns:xlink="http://www.w3.org/1999/xlink" width="500" zoomAndPan="magnify" viewBox="0 0 375 374.999991" height="500" preserveAspectRatio="xMidYMid meet" version="1.0"><defs><clipPath id="007e2c5ec0"><path d="M 0 45.507812 L 375 45.507812 L 375 329.757812 L 0 329.757812 Z M 0 45.507812 " clip-rule="nonzero"/></clipPath></defs><g clip-path="url(#007e2c5ec0)"><path fill="#0d9488" d="M 18.179688 273.691406 L 18.179688 133.261719 L 36.914062 133.261719 L 36.914062 115.066406 L 17.929688 115.066406 C 8.070312 115.070312 0 123.140625 0 133.015625 L 0 273.941406 C 0 283.8125 8.070312 291.886719 17.929688 291.886719 L 138.230469 291.886719 C 121.414062 284.726562 103.765625 279.605469 85.71875 276.65625 C 81.203125 275.917969 76.660156 275.316406 72.105469 274.847656 C 68.414062 274.46875 64.71875 274.179688 61.011719 273.988281 C 58.160156 273.832031 55.304688 273.738281 52.453125 273.691406 L 44.226562 273.691406 L 36.914062 273.742188 L 36.914062 273.691406 Z M 237.421875 238.835938 C 215.921875 249.179688 195.507812 261.6875 176.515625 276.183594 C 194.441406 254.597656 214.890625 235.28125 237.421875 218.648438 L 237.421875 74.628906 C 214.234375 81.328125 192.410156 92.289062 173.089844 107.015625 C 191.242188 88.167969 213.195312 73.496094 237.421875 63.929688 C 242.089844 62.089844 246.835938 60.433594 251.660156 58.980469 L 251.660156 232.375 C 246.863281 234.417969 242.117188 236.574219 237.421875 238.835938 Z M 306.644531 273.691406 L 306.644531 152.132812 C 307.125 152.167969 307.605469 152.183594 308.089844 152.183594 L 324.820312 152.183594 L 324.820312 273.9375 C 324.820312 283.808594 316.75 291.882812 306.890625 291.882812 L 186.59375 291.882812 C 203.410156 284.722656 221.058594 279.597656 239.105469 276.652344 C 243.621094 275.914062 248.164062 275.3125 252.71875 274.84375 C 256.410156 274.464844 260.105469 274.175781 263.8125 273.980469 C 266.664062 273.828125 269.519531 273.734375 272.371094 273.6875 L 280.597656 273.6875 L 287.910156 273.738281 L 287.910156 273.6875 L 306.644531 273.6875 Z M 263.261719 248.734375 L 263.261719 89.601562 L 277.5 89.601562 L 277.5 263.25 C 272.742188 263.214844 267.996094 263.332031 263.261719 263.578125 C 259.386719 263.785156 255.515625 264.082031 251.660156 264.476562 C 246.894531 264.964844 242.148438 265.589844 237.421875 266.367188 C 215.871094 269.894531 194.835938 276.378906 174.933594 285.683594 C 193.488281 270.933594 214.757812 260.144531 237.421875 253.855469 C 242.113281 252.554688 246.859375 251.445312 251.660156 250.535156 C 255.496094 249.8125 259.367188 249.207031 263.261719 248.734375 Z M 116.714844 311.925781 L 149.121094 311.925781 L 149.121094 307.117188 C 149.121094 304.6875 151.367188 302.703125 154.117188 302.703125 L 170.710938 302.703125 C 173.457031 302.703125 175.703125 304.691406 175.703125 307.117188 L 175.703125 311.925781 L 208.109375 311.925781 C 212.398438 311.925781 215.90625 315.023438 215.90625 318.8125 L 215.90625 322.796875 C 215.90625 326.585938 212.398438 329.683594 208.109375 329.683594 L 116.714844 329.683594 C 112.425781 329.683594 108.917969 326.585938 108.917969 322.796875 L 108.917969 318.8125 C 108.917969 315.023438 112.425781 311.925781 116.714844 311.925781 Z M 61.5625 248.734375 L 61.5625 89.601562 L 47.324219 89.601562 L 47.324219 263.25 C 52.082031 263.214844 56.828125 263.332031 61.5625 263.578125 C 65.4375 263.785156 69.308594 264.082031 73.164062 264.476562 C 77.929688 264.964844 82.675781 265.589844 87.402344 266.367188 C 108.953125 269.894531 129.988281 276.378906 149.890625 285.683594 C 131.335938 270.933594 110.066406 260.144531 87.402344 253.855469 C 82.710938 252.554688 77.960938 251.445312 73.164062 250.535156 C 69.324219 249.8125 65.457031 249.207031 61.5625 248.734375 Z M 329.992188 45.566406 L 342.703125 45.566406 C 343.699219 45.566406 344.503906 46.375 344.503906 47.371094 L 344.503906 60.097656 C 344.503906 61.085938 343.699219 61.898438 342.703125 61.898438 L 329.992188 61.898438 C 329.003906 61.898438 328.191406 61.085938 328.191406 60.097656 L 328.191406 47.371094 C 328.191406 46.375 329.003906 45.566406 329.992188 45.566406 Z M 308.089844 92.429688 L 339.519531 92.429688 C 340.011719 92.429688 340.445312 92.25 340.792969 91.902344 L 347.289062 85.398438 C 347.636719 85.050781 347.816406 84.621094 347.816406 84.125 L 347.816406 67.011719 C 347.816406 66.023438 348.625 65.210938 349.617188 65.210938 L 373.210938 65.210938 C 374.203125 65.210938 375.011719 66.023438 375.011719 67.011719 L 375.011719 90.625 C 375.011719 91.617188 374.203125 92.429688 373.210938 92.429688 L 356.117188 92.429688 C 355.617188 92.429688 355.191406 92.609375 354.84375 92.957031 L 348.34375 99.460938 C 347.996094 99.808594 347.816406 100.238281 347.816406 100.734375 L 347.816406 132.195312 C 347.816406 133.1875 347.007812 133.996094 346.015625 133.996094 L 308.089844 133.996094 C 307.097656 133.996094 306.289062 133.1875 306.289062 132.195312 L 306.289062 94.230469 C 306.292969 93.234375 307.097656 92.429688 308.089844 92.429688 Z M 87.402344 238.835938 C 108.902344 249.179688 129.316406 261.6875 148.308594 276.183594 C 130.382812 254.597656 109.929688 235.28125 87.402344 218.648438 L 87.402344 74.628906 C 110.585938 81.328125 132.414062 92.289062 151.730469 107.015625 C 133.574219 88.167969 111.625 73.496094 87.398438 63.929688 C 82.730469 62.089844 77.980469 60.433594 73.160156 58.980469 L 73.160156 232.375 C 77.960938 234.417969 82.707031 236.574219 87.402344 238.835938 Z M 87.402344 238.835938 " fill-opacity="1" fill-rule="evenodd"/></g></svg>